# xmcd
#
# Track frame offsets:
#  150
#  9133
#  21208
#  32290
#  41240
#  50750
#  60323
#  69998
#  83562
#  94489
#  105195
#  114159
#  125503
#  136837
#  148248
#  159428
#  168913
#  181019
#  190251
#  201540
#  212140
#  222017
#  232023
#  241075
#  250709
#  261083
#  271506
#  282413
#  293481
#  304747
#  317427
#  328238
#
# Disc length: 4506 seconds
#
# Revision: 0
# Processed by: cddbd v1.5.2PL0 Copyright (c) Steve Scherf et al.
# Submitted via: AltoMP3_Maker 3.0
#
DISCID=b6119820
DTITLE=Various Artist - Starday Hillbilly, Vol. 1
DYEAR=1900
DGENRE=
TTITLE0=Cecil Bowman - Blues around My Door
TTITLE1=Tommy Castle - I've Done More Accidentally
TTITLE2=Fred Crawford - Ain't Never Gonna Get Married Again
TTITLE3=Red Hays - Doggone Woman
TTITLE4=Glenn Barber - Livin' High and Wide
TTITLE5=Sonny Burns - Another Woman Lookin' for a Man
TTITLE6=Darnell Miller - Back to You
TTITLE7=Rudy Gaddis - Uranium Fever
TTITLE8=Eddie Noack - Take It Away Lucky
TTITLE9=Frank Evans - Pull the Shades Down Ma
TTITLE10=Jack Cardwell - Hey Hey Baby
TTITLE11=Chuck Mayfield - Lucky Me
TTITLE12=R. D. Hendon - Don't Push Me
TTITLE13=Roy Robinson - Little Romeo
TTITLE14=Jack Hammons - Mr. Cupid
TTITLE15=Gene Tabor - I'm a Real Gone Jesse
TTITLE16=Les Chambers - Bald Headed Daddy
TTITLE17=Fred Crawford - Me and My New Baby
TTITLE18=Red Mansel - I've Crossed You off My List
TTITLE19=Frank Evans - I'm Different
TTITLE20=Don Payne - Pogo the Hobo
TTITLE21=Lucky Hill - Fickle Baby
TTITLE22=Orville Couch - I Will if You Will
TTITLE23=Glenn Barber - Poor Man's Baby
TTITLE24=Bob Heppler - I Don't Like It
TTITLE25=Ken Clark - Ho Ho Love 'Em Joe
TTITLE26=Joe Gibson - Oh Brother
TTITLE27=Sonny Burns - Blue Blue Rain
TTITLE28=Jack Rhodes w Freddie Franks - Gypsy Heart
TTITLE29=Leo Ogletree - Crooked Dice
TTITLE30=Mary Jo Chelette - Son of Mexican Joe
TTITLE31=Al Petty - Steel Mill
EXTD=
EXTT0=
EXTT1=
EXTT2=
EXTT3=
EXTT4=
EXTT5=
EXTT6=
EXTT7=
EXTT8=
EXTT9=
EXTT10=
EXTT11=
EXTT12=
EXTT13=
EXTT14=
EXTT15=
EXTT16=
EXTT17=
EXTT18=
EXTT19=
EXTT20=
EXTT21=
EXTT22=
EXTT23=
EXTT24=
EXTT25=
EXTT26=
EXTT27=
EXTT28=
EXTT29=
EXTT30=
EXTT31=
PLAYORDER=
